<?xml version="1.0" standalone="no"?>
<!DOCTYPE svg PUBLIC "-//W3C//DTD SVG 20010904//EN"
 "http://www.w3.org/TR/2001/REC-SVG-20010904/DTD/svg10.dtd">
<svg version="1.0" xmlns="http://www.w3.org/2000/svg"
 width="70.000000pt" height="70.000000pt" viewBox="0 0 70.000000 70.000000"
 preserveAspectRatio="xMidYMid meet">
<metadata>
Created by potrace 1.11, written by Peter Selinger 2001-2013
</metadata>
<g transform="translate(0.000000,70.000000) scale(0.100000,-0.100000)"
fill="#000000" stroke="none">
<path d="M60 655 c0 -8 -7 -15 -15 -15 -12 0 -15 -20 -15 -120 l0 -120 43 0
c36 0 45 -4 59 -27 17 -27 16 -29 -15 -61 -19 -20 -27 -35 -21 -41 23 -23 167
-51 259 -51 155 0 255 38 255 97 0 19 -5 23 -30 23 -28 0 -30 3 -30 35 0 38
-5 35 83 39 l32 1 3 113 c2 95 0 112 -13 112 -8 0 -15 7 -15 15 0 13 -39 15
-290 15 -251 0 -290 -2 -290 -15z m334 -170 c4 -33 1 -55 -10 -77 -8 -16 -13
-32 -11 -34 2 -3 10 9 17 26 7 16 16 30 21 30 5 0 8 4 7 9 -2 5 7 23 20 40 23
32 66 43 74 19 6 -18 -23 -107 -49 -151 -23 -37 -37 -45 -48 -27 -3 6 -33 10
-65 10 -59 0 -70 5 -100 49 -8 12 -30 31 -47 42 -26 16 -33 27 -33 52 0 37 18
70 27 49 3 -7 24 -32 47 -55 22 -23 49 -57 58 -75 9 -17 22 -32 28 -32 6 0 2
12 -9 26 -12 15 -21 32 -21 38 0 18 70 117 79 112 5 -3 11 -26 15 -51z m-242
-44 c7 -10 23 -21 35 -25 19 -6 51 -38 81 -82 10 -14 52 -92 52 -96 0 -8 -90
1 -141 14 -81 21 -86 26 -55 55 l27 25 39 -35 c39 -36 79 -61 85 -55 2 2 -13
14 -33 28 -46 30 -76 64 -102 112 -32 59 -22 107 12 59z m403 2 c-6 -15 -24
-122 -25 -145 0 -9 -91 -68 -106 -68 -17 0 4 56 33 88 12 13 30 45 39 70 17
45 38 72 57 72 5 0 6 -8 2 -17z m45 -125 c0 -27 -51 -68 -84 -68 -19 0 -19 1
2 23 12 13 22 31 22 40 0 12 9 17 30 17 17 0 30 -5 30 -12z m-182 -26 c4 -30
-24 -62 -54 -62 -16 0 -31 12 -48 38 -13 20 -22 41 -19 45 3 4 30 7 61 5 51
-3 57 -5 60 -26z"/>
</g>
</svg>
